Coordinates
version=1
nRows=7
nColumns=40
inDegrees=yes

Units are S.I. units (second, meters, Newtons, ...)
Angles are in degrees.

endheader
time	pelvis_tilt	pelvis_list	pelvis_rotation	pelvis_tx	pelvis_ty	pelvis_tz	hip_flexion_r	hip_adduction_r	hip_rotation_r	knee_angle_r	knee_angle_r_beta	ankle_angle_r	subtalar_angle_r	mtp_angle_r	hip_flexion_l	hip_adduction_l	hip_rotation_l	knee_angle_l	knee_angle_l_beta	ankle_angle_l	subtalar_angle_l	mtp_angle_l	lumbar_extension	lumbar_bending	lumbar_rotation	arm_flex_r	arm_add_r	arm_rot_r	elbow_flex_r	pro_sup_r	wrist_flex_r	wrist_dev_r	arm_flex_l	arm_add_l	arm_rot_l	elbow_flex_l	pro_sup_l	wrist_flex_l	wrist_dev_l
      0.00000000	     -7.80571000	      0.19909520	     -0.20951409	     -0.95162113	      0.94061812	      1.38772757	     31.55926325	    -10.67876657	    -18.53744119	    -27.42843460	     -0.47871649	      2.17667894	     -6.61174200	     11.34758620	      2.47568446	     -5.00914743	      8.30125082	     -9.91454532	     -0.17304146	      7.47147855	      2.54512419	    -12.63224275	     -2.30882926	      0.45679073	    -10.16318299	     -6.13565510	    -12.44882031	    -19.36612482	     22.49262874	     89.95437384	      0.00000000	      0.00000000	      8.19612904	     12.04080611	      0.58457713	     32.08729020	     89.95437384	      0.00000000	      0.00000000
      0.01000000	     -7.66118503	      0.16602237	      0.41139117	     -0.94020803	      0.93904569	      1.38940917	     31.56315744	    -10.71969277	    -18.84649810	    -24.23468987	     -0.42297513	      2.21866268	     -4.96803630	     11.36244043	      1.41406425	     -4.85034788	      7.93627630	     -9.66962793	     -0.16876684	      7.85000135	      2.15967800	    -12.73383616	     -2.41469656	      0.47638016	    -10.60020486	     -6.57987480	    -12.39678123	    -19.68692348	     21.94442496	     89.95437384	      0.00000000	      0.00000000	      9.34308309	     12.53310698	      0.61048204	     33.13105992	     89.95437384	      0.00000000	      0.00000000
      0.02000000	     -7.85533580	      0.50139413	      0.91411058	     -0.92902462	      0.93674332	      1.39110011	     32.09537629	    -11.07610789	    -18.66835944	    -21.31420356	     -0.37200303	      2.38364119	     -3.68757022	     11.33125260	      0.80032545	     -5.08453170	      7.76723763	     -9.59735607	     -0.16750546	      8.14102389	      1.80517768	    -12.83272218	     -2.12658045	      0.07376749	    -10.94828784	     -7.18288154	    -12.32731493	    -19.81865271	     21.67056008	     89.95437384	      0.00000000	      0.00000000	     10.42106032	     13.04304503	      0.72173716	     34.06111569	     89.95437384	      0.00000000	      0.00000000
      0.03000000	     -7.37576586	      0.17541006	      1.49594497	     -0.91682686	      0.93548840	      1.39294602	     31.45109520	    -10.91180832	    -19.85265947	    -18.07287543	     -0.31543118	      2.53534510	     -1.08520163	     11.05239788	     -0.65365469	     -4.51990110	      7.67678093	     -9.38471126	     -0.16379411	      8.63165029	      1.32201967	    -13.14882736	     -2.56841682	      0.44804055	    -11.33719438	     -7.54476038	    -12.30489744	    -20.41509038	     21.12279324	     89.95437384	      0.00000000	      0.00000000	     11.40404069	     13.40318884	      1.05853782	     35.13884942	     89.95437384	      0.00000000	      0.00000000
      0.04000000	     -7.32554506	      0.17485398	      1.98786596	     -0.90512159	      0.93342651	      1.39483706	     31.50358037	    -11.04163779	    -20.66995151	    -15.27125409	     -0.26653366	      2.45858612	      1.02931172	     10.47188745	     -1.47596474	     -4.29937690	      7.82615779	     -9.47370592	     -0.16534736	      8.91056013	      0.69891813	    -13.54618074	     -2.54150518	      0.45078133	    -11.68707558	     -8.05343642	    -12.28951270	    -20.67635532	     20.84254139	     89.95437384	      0.00000000	      0.00000000	     12.37317137	     13.82022684	      1.26749842	     36.14749042	     89.95437384	      0.00000000	      0.00000000
      0.05000000	     -7.58196949	      0.44074957	      2.35480877	     -0.89358916	      0.93069266	      1.39674413	     32.05368431	    -11.32164277	    -20.93171230	    -12.86947026	     -0.22461463	      2.36561394	      2.30541410	     10.43144313	     -2.00391265	     -4.42638245	      7.82459930	     -9.45328456	     -0.16499094	      9.24744178	      0.42376930	    -13.75156184	     -2.18612046	      0.15016028	    -11.91873218	     -8.57356139	    -12.27326323	    -20.83428063	     20.55022356	     89.95437384	      0.00000000	      0.00000000	     13.22838403	     14.25990180	      1.45265323	     37.09859781	     89.95437384	      0.00000000	      0.00000000
      0.06000000	     -7.21155851	      0.14090746	      2.79058559	     -0.88089094	      0.92893710	      1.39904180	     31.77952150	    -11.26822903	    -23.21247210	    -10.93543584	     -0.19085936	      2.00210831	      5.51674552	      8.66145702	     -3.12482275	     -3.69772887	      8.81177212	     -9.69366386	     -0.16918635	      9.43243452	     -1.33166925	    -14.58661367	     -2.43802060	      0.48836880	    -12.19176437	     -9.03864039	    -12.30620408	    -21.05703238	     20.23175098	     89.95437384	      0.00000000	      0.00000000	     14.12219394	     14.47557648	      1.98664460	     37.79081680	     89.95437384	      0.00000000	      0.00000000
